<svg xmlns="http://www.w3.org/2000/svg" xmlns:xlink="http://www.w3.org/1999/xlink" viewBox="0,0,256,256" width="24px" height="24px"><g fill="#ffffff" fill-rule="nonzero" stroke="none" stroke-width="1" stroke-linecap="butt" stroke-linejoin="miter" stroke-miterlimit="10" stroke-dasharray="" stroke-dashoffset="0" font-family="none" font-weight="none" font-size="none" text-anchor="none" style="mix-blend-mode: normal"><g transform="scale(10.66667,10.66667)"><path d="M12,2c-5.523,0 -10,4.477 -10,10c0,5.523 4.477,10 10,10c5.523,0 10,-4.477 10,-10c0,-5.523 -4.477,-10 -10,-10zM12,4c4.418,0 8,3.582 8,8c0,4.418 -3.582,8 -8,8c-0.73562,0 -1.44451,-0.10703 -2.12109,-0.29297c0.21281,-0.42875 0.40372,-0.88058 0.50781,-1.28125c0.115,-0.44 0.58594,-2.23437 0.58594,-2.23437c0.306,0.584 1.20034,1.08008 2.15234,1.08008c2.833,0 4.875,-2.60575 4.875,-5.84375c0,-3.105 -2.53297,-5.42773 -5.79297,-5.42773c-4.055,0 -6.20703,2.72155 -6.20703,5.68555c0,1.378 0.73325,3.09363 1.90625,3.64063c0.178,0.083 0.27345,0.047 0.31445,-0.125c0.032,-0.131 0.19072,-0.76941 0.26172,-1.06641c0.023,-0.094 0.01255,-0.17653 -0.06445,-0.26953c-0.388,-0.471 -0.69922,-1.33558 -0.69922,-2.14258c0,-2.073 1.56919,-4.07812 4.24219,-4.07812c2.308,0 3.92383,1.57327 3.92383,3.82227c0,2.541 -1.28312,4.30078 -2.95312,4.30078c-0.922,0 -1.61458,-0.76127 -1.39258,-1.69727c0.265,-1.117 0.7793,-2.32291 0.7793,-3.12891c0,-0.721 -0.3855,-1.32227 -1.1875,-1.32227c-0.943,0 -1.70117,0.97425 -1.70117,2.28125c0,0.832 0.28125,1.39453 0.28125,1.39453c0,0 -0.93056,3.93692 -1.10156,4.66992c-0.08475,0.36174 -0.11304,0.7903 -0.11523,1.21875c-2.65837,-1.30048 -4.49414,-4.02495 -4.49414,-7.18359c0,-4.418 3.582,-8 8,-8z"></path></g></g></svg>