<?xml version="1.0" encoding="UTF-8"?>
<svg xmlns="http://www.w3.org/2000/svg" viewBox="0 0 2951.9 1891.97">
  <defs>
    <style>
      .cls-1 {
        fill: #010202;
      }

      .cls-2 {
        fill: #fff;
      }

      .cls-3 {
        fill: #dc191a;
      }
    </style>
  </defs>
  <g id="Capa_1" data-name="Capa 1">
    <rect class="cls-3" width="2951.9" height="1891.97"/>
  </g>
  <g id="Capa_2" data-name="Capa 2">
    <g>
      <circle class="cls-1" cx="615.8" cy="334.37" r="110.62"/>
      <g>
        <path class="cls-2" d="M615.8,266.1c43.45,0,81.03,25.07,99.13,61.52,7.35-14.8,11.5-31.46,11.5-49.1,0-61.09-49.53-110.62-110.62-110.62s-110.62,49.53-110.62,110.62c0,17.64,4.15,34.31,11.5,49.1,18.09-36.45,55.67-61.52,99.13-61.52Z"/>
        <path class="cls-2" d="M615.8,389.14c-43.45,0-81.03-25.07-99.13-61.52-7.35,14.8-11.5,31.46-11.5,49.1,0,61.09,49.53,110.62,110.62,110.62s110.62-49.53,110.62-110.62c0-17.64-4.15-34.31-11.5-49.1-18.09,36.45-55.67,61.52-99.13,61.52Z"/>
      </g>
      <rect class="cls-2" x="504.71" y="270.32" width="11.36" height="114.59" rx="2.66" ry="2.66"/>
      <rect class="cls-2" x="715.06" y="277.08" width="11.36" height="106.52" rx="2.66" ry="2.66"/>
    </g>
    <g>
      <circle class="cls-1" cx="395.99" cy="555.56" r="110.62"/>
      <g>
        <path class="cls-2" d="M395.99,487.28c43.45,0,81.03,25.07,99.13,61.52,7.35-14.8,11.5-31.46,11.5-49.1,0-61.09-49.53-110.62-110.62-110.62s-110.62,49.53-110.62,110.62c0,17.64,4.15,34.31,11.5,49.1,18.09-36.45,55.67-61.52,99.13-61.52Z"/>
        <path class="cls-2" d="M395.99,610.32c-43.45,0-81.03-25.07-99.13-61.52-7.35,14.8-11.5,31.46-11.5,49.1,0,61.09,49.53,110.62,110.62,110.62s110.62-49.53,110.62-110.62c0-17.64-4.15-34.31-11.5-49.1-18.09,36.45-55.67,61.52-99.13,61.52Z"/>
      </g>
      <rect class="cls-2" x="284.89" y="491.51" width="11.36" height="114.59" rx="2.66" ry="2.66"/>
      <rect class="cls-2" x="495.24" y="498.26" width="11.36" height="106.52" rx="2.66" ry="2.66"/>
    </g>
    <g>
      <circle class="cls-1" cx="185.97" cy="334.37" r="110.62"/>
      <g>
        <path class="cls-2" d="M185.97,266.1c43.45,0,81.03,25.07,99.13,61.52,7.35-14.8,11.5-31.46,11.5-49.1,0-61.09-49.53-110.62-110.62-110.62s-110.62,49.53-110.62,110.62c0,17.64,4.15,34.31,11.5,49.1,18.09-36.45,55.67-61.52,99.13-61.52Z"/>
        <path class="cls-2" d="M185.97,389.14c-43.45,0-81.03-25.07-99.13-61.52-7.35,14.8-11.5,31.46-11.5,49.1,0,61.09,49.53,110.62,110.62,110.62s110.62-49.53,110.62-110.62c0-17.64-4.15-34.31-11.5-49.1-18.09,36.45-55.67,61.52-99.13,61.52Z"/>
      </g>
      <rect class="cls-2" x="74.87" y="270.32" width="11.36" height="114.59" rx="2.66" ry="2.66"/>
      <rect class="cls-2" x="285.22" y="277.08" width="11.36" height="106.52" rx="2.66" ry="2.66"/>
    </g>
    <g>
      <circle class="cls-1" cx="614.28" cy="860.6" r="110.62"/>
      <g>
        <path class="cls-2" d="M614.28,792.33c43.45,0,81.03,25.07,99.13,61.52,7.35-14.8,11.5-31.46,11.5-49.1,0-61.09-49.53-110.62-110.62-110.62s-110.62,49.53-110.62,110.62c0,17.64,4.15,34.31,11.5,49.1,18.09-36.45,55.67-61.52,99.13-61.52Z"/>
        <path class="cls-2" d="M614.28,915.37c-43.45,0-81.03-25.07-99.13-61.52-7.35,14.8-11.5,31.46-11.5,49.1,0,61.09,49.53,110.62,110.62,110.62s110.62-49.53,110.62-110.62c0-17.64-4.15-34.31-11.5-49.1-18.09,36.45-55.67,61.52-99.13,61.52Z"/>
      </g>
      <rect class="cls-2" x="503.19" y="796.55" width="11.36" height="114.59" rx="2.66" ry="2.66"/>
      <rect class="cls-2" x="713.54" y="803.31" width="11.36" height="106.52" rx="2.66" ry="2.66"/>
    </g>
    <g>
      <circle class="cls-1" cx="394.46" cy="1081.78" r="110.62"/>
      <g>
        <path class="cls-2" d="M394.46,1013.51c43.45,0,81.03,25.07,99.13,61.52,7.35-14.8,11.5-31.46,11.5-49.1,0-61.09-49.53-110.62-110.62-110.62s-110.62,49.53-110.62,110.62c0,17.64,4.15,34.31,11.5,49.1,18.09-36.45,55.67-61.52,99.13-61.52Z"/>
        <path class="cls-2" d="M394.46,1136.55c-43.45,0-81.03-25.07-99.13-61.52-7.35,14.8-11.5,31.46-11.5,49.1,0,61.09,49.53,110.62,110.62,110.62s110.62-49.53,110.62-110.62c0-17.64-4.15-34.31-11.5-49.1-18.09,36.45-55.67,61.52-99.13,61.52Z"/>
      </g>
      <rect class="cls-2" x="283.37" y="1017.73" width="11.36" height="114.59" rx="2.66" ry="2.66"/>
      <rect class="cls-2" x="493.72" y="1024.49" width="11.36" height="106.52" rx="2.66" ry="2.66"/>
    </g>
    <g>
      <circle class="cls-1" cx="184.44" cy="860.6" r="110.62"/>
      <g>
        <path class="cls-2" d="M184.44,792.33c43.45,0,81.03,25.07,99.13,61.52,7.35-14.8,11.5-31.46,11.5-49.1,0-61.09-49.53-110.62-110.62-110.62s-110.62,49.53-110.62,110.62c0,17.64,4.15,34.31,11.5,49.1,18.09-36.45,55.67-61.52,99.13-61.52Z"/>
        <path class="cls-2" d="M184.44,915.37c-43.45,0-81.03-25.07-99.13-61.52-7.35,14.8-11.5,31.46-11.5,49.1,0,61.09,49.53,110.62,110.62,110.62s110.62-49.53,110.62-110.62c0-17.64-4.15-34.31-11.5-49.1-18.09,36.45-55.67,61.52-99.13,61.52Z"/>
      </g>
      <rect class="cls-2" x="73.35" y="796.55" width="11.36" height="114.59" rx="2.66" ry="2.66"/>
      <rect class="cls-2" x="283.7" y="803.31" width="11.36" height="106.52" rx="2.66" ry="2.66"/>
    </g>
    <g>
      <circle class="cls-1" cx="609.62" cy="1446.1" r="110.62"/>
      <g>
        <path class="cls-2" d="M609.62,1377.83c43.45,0,81.03,25.07,99.13,61.52,7.35-14.8,11.5-31.46,11.5-49.1,0-61.09-49.53-110.62-110.62-110.62s-110.62,49.53-110.62,110.62c0,17.64,4.15,34.31,11.5,49.1,18.09-36.45,55.67-61.52,99.13-61.52Z"/>
        <path class="cls-2" d="M609.62,1500.86c-43.45,0-81.03-25.07-99.13-61.52-7.35,14.8-11.5,31.46-11.5,49.1,0,61.09,49.53,110.62,110.62,110.62s110.62-49.53,110.62-110.62c0-17.64-4.15-34.31-11.5-49.1-18.09,36.45-55.67,61.52-99.13,61.52Z"/>
      </g>
      <rect class="cls-2" x="498.52" y="1382.05" width="11.36" height="114.59" rx="2.66" ry="2.66"/>
      <rect class="cls-2" x="708.87" y="1388.8" width="11.36" height="106.52" rx="2.66" ry="2.66"/>
    </g>
    <g>
      <circle class="cls-1" cx="389.8" cy="1667.28" r="110.62"/>
      <g>
        <path class="cls-2" d="M389.8,1599.01c43.45,0,81.03,25.07,99.13,61.52,7.35-14.8,11.5-31.46,11.5-49.1,0-61.09-49.53-110.62-110.62-110.62s-110.62,49.53-110.62,110.62c0,17.64,4.15,34.31,11.5,49.1,18.09-36.45,55.67-61.52,99.13-61.52Z"/>
        <path class="cls-2" d="M389.8,1722.04c-43.45,0-81.03-25.07-99.13-61.52-7.35,14.8-11.5,31.46-11.5,49.1,0,61.09,49.53,110.62,110.62,110.62s110.62-49.53,110.62-110.62c0-17.64-4.15-34.31-11.5-49.1-18.09,36.45-55.67,61.52-99.13,61.52Z"/>
      </g>
      <rect class="cls-2" x="278.71" y="1603.23" width="11.36" height="114.59" rx="2.66" ry="2.66"/>
      <rect class="cls-2" x="489.06" y="1609.98" width="11.36" height="106.52" rx="2.66" ry="2.66"/>
    </g>
    <g>
      <circle class="cls-1" cx="179.78" cy="1446.1" r="110.62"/>
      <g>
        <path class="cls-2" d="M179.78,1377.83c43.45,0,81.03,25.07,99.13,61.52,7.35-14.8,11.5-31.46,11.5-49.1,0-61.09-49.53-110.62-110.62-110.62s-110.62,49.53-110.62,110.62c0,17.64,4.15,34.31,11.5,49.1,18.09-36.45,55.67-61.52,99.13-61.52Z"/>
        <path class="cls-2" d="M179.78,1500.86c-43.45,0-81.03-25.07-99.13-61.52-7.35,14.8-11.5,31.46-11.5,49.1,0,61.09,49.53,110.62,110.62,110.62s110.62-49.53,110.62-110.62c0-17.64-4.15-34.31-11.5-49.1-18.09,36.45-55.67,61.52-99.13,61.52Z"/>
      </g>
      <rect class="cls-2" x="68.69" y="1382.05" width="11.36" height="114.59" rx="2.66" ry="2.66"/>
      <rect class="cls-2" x="279.04" y="1388.8" width="11.36" height="106.52" rx="2.66" ry="2.66"/>
    </g>
    <g>
      <circle class="cls-1" cx="1320.91" cy="334.37" r="110.62"/>
      <g>
        <path class="cls-2" d="M1320.91,266.1c43.45,0,81.03,25.07,99.13,61.52,7.35-14.8,11.5-31.46,11.5-49.1,0-61.09-49.53-110.62-110.62-110.62s-110.62,49.53-110.62,110.62c0,17.64,4.15,34.31,11.5,49.1,18.09-36.45,55.67-61.52,99.13-61.52Z"/>
        <path class="cls-2" d="M1320.91,389.14c-43.45,0-81.03-25.07-99.13-61.52-7.35,14.8-11.5,31.46-11.5,49.1,0,61.09,49.53,110.62,110.62,110.62s110.62-49.53,110.62-110.62c0-17.64-4.15-34.31-11.5-49.1-18.09,36.45-55.67,61.52-99.13,61.52Z"/>
      </g>
      <rect class="cls-2" x="1209.82" y="270.32" width="11.36" height="114.59" rx="2.66" ry="2.66"/>
      <rect class="cls-2" x="1420.17" y="277.08" width="11.36" height="106.52" rx="2.66" ry="2.66"/>
    </g>
    <g>
      <circle class="cls-1" cx="1101.1" cy="555.56" r="110.62"/>
      <g>
        <path class="cls-2" d="M1101.1,487.28c43.45,0,81.03,25.07,99.13,61.52,7.35-14.8,11.5-31.46,11.5-49.1,0-61.09-49.53-110.62-110.62-110.62s-110.62,49.53-110.62,110.62c0,17.64,4.15,34.31,11.5,49.1,18.09-36.45,55.67-61.52,99.13-61.52Z"/>
        <path class="cls-2" d="M1101.1,610.32c-43.45,0-81.03-25.07-99.13-61.52-7.35,14.8-11.5,31.46-11.5,49.1,0,61.09,49.53,110.62,110.62,110.62s110.62-49.53,110.62-110.62c0-17.64-4.15-34.31-11.5-49.1-18.09,36.45-55.67,61.52-99.13,61.52Z"/>
      </g>
      <rect class="cls-2" x="990.01" y="491.51" width="11.36" height="114.59" rx="2.66" ry="2.66"/>
      <rect class="cls-2" x="1200.36" y="498.26" width="11.36" height="106.52" rx="2.66" ry="2.66"/>
    </g>
    <g>
      <circle class="cls-1" cx="891.08" cy="334.37" r="110.62"/>
      <g>
        <path class="cls-2" d="M891.08,266.1c43.45,0,81.03,25.07,99.13,61.52,7.35-14.8,11.5-31.46,11.5-49.1,0-61.09-49.53-110.62-110.62-110.62s-110.62,49.53-110.62,110.62c0,17.64,4.15,34.31,11.5,49.1,18.09-36.45,55.67-61.52,99.13-61.52Z"/>
        <path class="cls-2" d="M891.08,389.14c-43.45,0-81.03-25.07-99.13-61.52-7.35,14.8-11.5,31.46-11.5,49.1,0,61.09,49.53,110.62,110.62,110.62s110.62-49.53,110.62-110.62c0-17.64-4.15-34.31-11.5-49.1-18.09,36.45-55.67,61.52-99.13,61.52Z"/>
      </g>
      <rect class="cls-2" x="779.99" y="270.32" width="11.36" height="114.59" rx="2.66" ry="2.66"/>
      <rect class="cls-2" x="990.34" y="277.08" width="11.36" height="106.52" rx="2.66" ry="2.66"/>
    </g>
    <g>
      <circle class="cls-1" cx="1316.25" cy="1423.53" r="110.62"/>
      <g>
        <path class="cls-2" d="M1316.25,1355.26c43.45,0,81.03,25.07,99.13,61.52,7.35-14.8,11.5-31.46,11.5-49.1,0-61.09-49.53-110.62-110.62-110.62s-110.62,49.53-110.62,110.62c0,17.64,4.15,34.31,11.5,49.1,18.09-36.45,55.67-61.52,99.13-61.52Z"/>
        <path class="cls-2" d="M1316.25,1478.29c-43.45,0-81.03-25.07-99.13-61.52-7.35,14.8-11.5,31.46-11.5,49.1,0,61.09,49.53,110.62,110.62,110.62s110.62-49.53,110.62-110.62c0-17.64-4.15-34.31-11.5-49.1-18.09,36.45-55.67,61.52-99.13,61.52Z"/>
      </g>
      <rect class="cls-2" x="1205.16" y="1359.48" width="11.36" height="114.59" rx="2.66" ry="2.66"/>
      <rect class="cls-2" x="1415.51" y="1366.23" width="11.36" height="106.52" rx="2.66" ry="2.66"/>
    </g>
    <g>
      <circle class="cls-1" cx="1096.44" cy="1644.71" r="110.62"/>
      <g>
        <path class="cls-2" d="M1096.44,1576.44c43.45,0,81.03,25.07,99.13,61.52,7.35-14.8,11.5-31.46,11.5-49.1,0-61.09-49.53-110.62-110.62-110.62s-110.62,49.53-110.62,110.62c0,17.64,4.15,34.31,11.5,49.1,18.09-36.45,55.67-61.52,99.13-61.52Z"/>
        <path class="cls-2" d="M1096.44,1699.47c-43.45,0-81.03-25.07-99.13-61.52-7.35,14.8-11.5,31.46-11.5,49.1,0,61.09,49.53,110.62,110.62,110.62s110.62-49.53,110.62-110.62c0-17.64-4.15-34.31-11.5-49.1-18.09,36.45-55.67,61.52-99.13,61.52Z"/>
      </g>
      <rect class="cls-2" x="985.34" y="1580.66" width="11.36" height="114.59" rx="2.66" ry="2.66"/>
      <rect class="cls-2" x="1195.7" y="1587.42" width="11.36" height="106.52" rx="2.66" ry="2.66"/>
    </g>
    <g>
      <circle class="cls-1" cx="886.42" cy="1423.53" r="110.62"/>
      <g>
        <path class="cls-2" d="M886.42,1355.26c43.45,0,81.03,25.07,99.13,61.52,7.35-14.8,11.5-31.46,11.5-49.1,0-61.09-49.53-110.62-110.62-110.62s-110.62,49.53-110.62,110.62c0,17.64,4.15,34.31,11.5,49.1,18.09-36.45,55.67-61.52,99.13-61.52Z"/>
        <path class="cls-2" d="M886.42,1478.29c-43.45,0-81.03-25.07-99.13-61.52-7.35,14.8-11.5,31.46-11.5,49.1,0,61.09,49.53,110.62,110.62,110.62s110.62-49.53,110.62-110.62c0-17.64-4.15-34.31-11.5-49.1-18.09,36.45-55.67,61.52-99.13,61.52Z"/>
      </g>
      <rect class="cls-2" x="775.33" y="1359.48" width="11.36" height="114.59" rx="2.66" ry="2.66"/>
      <rect class="cls-2" x="985.68" y="1366.23" width="11.36" height="106.52" rx="2.66" ry="2.66"/>
    </g>
    <g>
      <circle class="cls-1" cx="2056.78" cy="319.27" r="110.62"/>
      <g>
        <path class="cls-2" d="M2056.78,251c43.45,0,81.03,25.07,99.13,61.52,7.35-14.8,11.5-31.46,11.5-49.1,0-61.09-49.53-110.62-110.62-110.62s-110.62,49.53-110.62,110.62c0,17.64,4.15,34.31,11.5,49.1,18.09-36.45,55.67-61.52,99.13-61.52Z"/>
        <path class="cls-2" d="M2056.78,374.04c-43.45,0-81.03-25.07-99.13-61.52-7.35,14.8-11.5,31.46-11.5,49.1,0,61.09,49.53,110.62,110.62,110.62s110.62-49.53,110.62-110.62c0-17.64-4.15-34.31-11.5-49.1-18.09,36.45-55.67,61.52-99.13,61.52Z"/>
      </g>
      <rect class="cls-2" x="1945.69" y="255.22" width="11.36" height="114.59" rx="2.66" ry="2.66"/>
      <rect class="cls-2" x="2156.04" y="261.98" width="11.36" height="106.52" rx="2.66" ry="2.66"/>
    </g>
    <g>
      <circle class="cls-1" cx="1836.97" cy="540.45" r="110.62"/>
      <g>
        <path class="cls-2" d="M1836.97,472.18c43.45,0,81.03,25.07,99.13,61.52,7.35-14.8,11.5-31.46,11.5-49.1,0-61.09-49.53-110.62-110.62-110.62s-110.62,49.53-110.62,110.62c0,17.64,4.15,34.31,11.5,49.1,18.09-36.45,55.67-61.52,99.13-61.52Z"/>
        <path class="cls-2" d="M1836.97,595.22c-43.45,0-81.03-25.07-99.13-61.52-7.35,14.8-11.5,31.46-11.5,49.1,0,61.09,49.53,110.62,110.62,110.62s110.62-49.53,110.62-110.62c0-17.64-4.15-34.31-11.5-49.1-18.09,36.45-55.67,61.52-99.13,61.52Z"/>
      </g>
      <rect class="cls-2" x="1725.87" y="476.4" width="11.36" height="114.59" rx="2.66" ry="2.66"/>
      <rect class="cls-2" x="1936.22" y="483.16" width="11.36" height="106.52" rx="2.66" ry="2.66"/>
    </g>
    <g>
      <circle class="cls-1" cx="1626.95" cy="319.27" r="110.62"/>
      <g>
        <path class="cls-2" d="M1626.95,251c43.45,0,81.03,25.07,99.13,61.52,7.35-14.8,11.5-31.46,11.5-49.1,0-61.09-49.53-110.62-110.62-110.62s-110.62,49.53-110.62,110.62c0,17.64,4.15,34.31,11.5,49.1,18.09-36.45,55.67-61.52,99.13-61.52Z"/>
        <path class="cls-2" d="M1626.95,374.04c-43.45,0-81.03-25.07-99.13-61.52-7.35,14.8-11.5,31.46-11.5,49.1,0,61.09,49.53,110.62,110.62,110.62s110.62-49.53,110.62-110.62c0-17.64-4.15-34.31-11.5-49.1-18.09,36.45-55.67,61.52-99.13,61.52Z"/>
      </g>
      <rect class="cls-2" x="1515.85" y="255.22" width="11.36" height="114.59" rx="2.66" ry="2.66"/>
      <rect class="cls-2" x="1726.2" y="261.98" width="11.36" height="106.52" rx="2.66" ry="2.66"/>
    </g>
    <g>
      <circle class="cls-1" cx="2050.6" cy="1430.99" r="110.62"/>
      <g>
        <path class="cls-2" d="M2050.6,1362.72c43.45,0,81.03,25.07,99.13,61.52,7.35-14.8,11.5-31.46,11.5-49.1,0-61.09-49.53-110.62-110.62-110.62s-110.62,49.53-110.62,110.62c0,17.64,4.15,34.31,11.5,49.1,18.09-36.45,55.67-61.52,99.13-61.52Z"/>
        <path class="cls-2" d="M2050.6,1485.76c-43.45,0-81.03-25.07-99.13-61.52-7.35,14.8-11.5,31.46-11.5,49.1,0,61.09,49.53,110.62,110.62,110.62s110.62-49.53,110.62-110.62c0-17.64-4.15-34.31-11.5-49.1-18.09,36.45-55.67,61.52-99.13,61.52Z"/>
      </g>
      <rect class="cls-2" x="1939.5" y="1366.94" width="11.36" height="114.59" rx="2.66" ry="2.66"/>
      <rect class="cls-2" x="2149.86" y="1373.7" width="11.36" height="106.52" rx="2.66" ry="2.66"/>
    </g>
    <g>
      <circle class="cls-1" cx="1830.78" cy="1652.18" r="110.62"/>
      <g>
        <path class="cls-2" d="M1830.78,1583.9c43.45,0,81.03,25.07,99.13,61.52,7.35-14.8,11.5-31.46,11.5-49.1,0-61.09-49.53-110.62-110.62-110.62s-110.62,49.53-110.62,110.62c0,17.64,4.15,34.31,11.5,49.1,18.09-36.45,55.67-61.52,99.13-61.52Z"/>
        <path class="cls-2" d="M1830.78,1706.94c-43.45,0-81.03-25.07-99.13-61.52-7.35,14.8-11.5,31.46-11.5,49.1,0,61.09,49.53,110.62,110.62,110.62s110.62-49.53,110.62-110.62c0-17.64-4.15-34.31-11.5-49.1-18.09,36.45-55.67,61.52-99.13,61.52Z"/>
      </g>
      <rect class="cls-2" x="1719.69" y="1588.13" width="11.36" height="114.59" rx="2.66" ry="2.66"/>
      <rect class="cls-2" x="1930.04" y="1594.88" width="11.36" height="106.52" rx="2.66" ry="2.66"/>
    </g>
    <g>
      <circle class="cls-1" cx="1620.76" cy="1430.99" r="110.62"/>
      <g>
        <path class="cls-2" d="M1620.76,1362.72c43.45,0,81.03,25.07,99.13,61.52,7.35-14.8,11.5-31.46,11.5-49.1,0-61.09-49.53-110.62-110.62-110.62s-110.62,49.53-110.62,110.62c0,17.64,4.15,34.31,11.5,49.1,18.09-36.45,55.67-61.52,99.13-61.52Z"/>
        <path class="cls-2" d="M1620.76,1485.76c-43.45,0-81.03-25.07-99.13-61.52-7.35,14.8-11.5,31.46-11.5,49.1,0,61.09,49.53,110.62,110.62,110.62s110.62-49.53,110.62-110.62c0-17.64-4.15-34.31-11.5-49.1-18.09,36.45-55.67,61.52-99.13,61.52Z"/>
      </g>
      <rect class="cls-2" x="1509.67" y="1366.94" width="11.36" height="114.59" rx="2.66" ry="2.66"/>
      <rect class="cls-2" x="1720.02" y="1373.7" width="11.36" height="106.52" rx="2.66" ry="2.66"/>
    </g>
    <g>
      <circle class="cls-1" cx="2761.9" cy="319.27" r="110.62"/>
      <g>
        <path class="cls-2" d="M2761.9,251c43.45,0,81.03,25.07,99.13,61.52,7.35-14.8,11.5-31.46,11.5-49.1,0-61.09-49.53-110.62-110.62-110.62s-110.62,49.53-110.62,110.62c0,17.64,4.15,34.31,11.5,49.1,18.09-36.45,55.67-61.52,99.13-61.52Z"/>
        <path class="cls-2" d="M2761.9,374.04c-43.45,0-81.03-25.07-99.13-61.52-7.35,14.8-11.5,31.46-11.5,49.1,0,61.09,49.53,110.62,110.62,110.62s110.62-49.53,110.62-110.62c0-17.64-4.15-34.31-11.5-49.1-18.09,36.45-55.67,61.52-99.13,61.52Z"/>
      </g>
      <rect class="cls-2" x="2650.8" y="255.22" width="11.36" height="114.59" rx="2.66" ry="2.66"/>
      <rect class="cls-2" x="2861.15" y="261.98" width="11.36" height="106.52" rx="2.66" ry="2.66"/>
    </g>
    <g>
      <circle class="cls-1" cx="2542.08" cy="540.45" r="110.62"/>
      <g>
        <path class="cls-2" d="M2542.08,472.18c43.45,0,81.03,25.07,99.13,61.52,7.35-14.8,11.5-31.46,11.5-49.1,0-61.09-49.53-110.62-110.62-110.62s-110.62,49.53-110.62,110.62c0,17.64,4.15,34.31,11.5,49.1,18.09-36.45,55.67-61.52,99.13-61.52Z"/>
        <path class="cls-2" d="M2542.08,595.22c-43.45,0-81.03-25.07-99.13-61.52-7.35,14.8-11.5,31.46-11.5,49.1,0,61.09,49.53,110.62,110.62,110.62s110.62-49.53,110.62-110.62c0-17.64-4.15-34.31-11.5-49.1-18.09,36.45-55.67,61.52-99.13,61.52Z"/>
      </g>
      <rect class="cls-2" x="2430.99" y="476.4" width="11.36" height="114.59" rx="2.66" ry="2.66"/>
      <rect class="cls-2" x="2641.34" y="483.16" width="11.36" height="106.52" rx="2.66" ry="2.66"/>
    </g>
    <g>
      <circle class="cls-1" cx="2332.06" cy="319.27" r="110.62"/>
      <g>
        <path class="cls-2" d="M2332.06,251c43.45,0,81.03,25.07,99.13,61.52,7.35-14.8,11.5-31.46,11.5-49.1,0-61.09-49.53-110.62-110.62-110.62s-110.62,49.53-110.62,110.62c0,17.64,4.15,34.31,11.5,49.1,18.09-36.45,55.67-61.52,99.13-61.52Z"/>
        <path class="cls-2" d="M2332.06,374.04c-43.45,0-81.03-25.07-99.13-61.52-7.35,14.8-11.5,31.46-11.5,49.1,0,61.09,49.53,110.62,110.62,110.62s110.62-49.53,110.62-110.62c0-17.64-4.15-34.31-11.5-49.1-18.09,36.45-55.67,61.52-99.13,61.52Z"/>
      </g>
      <rect class="cls-2" x="2220.97" y="255.22" width="11.36" height="114.59" rx="2.66" ry="2.66"/>
      <rect class="cls-2" x="2431.32" y="261.98" width="11.36" height="106.52" rx="2.66" ry="2.66"/>
    </g>
    <g>
      <circle class="cls-1" cx="2773.26" cy="852.22" r="110.62"/>
      <g>
        <path class="cls-2" d="M2773.26,783.95c43.45,0,81.03,25.07,99.13,61.52,7.35-14.8,11.5-31.46,11.5-49.1,0-61.09-49.53-110.62-110.62-110.62s-110.62,49.53-110.62,110.62c0,17.64,4.15,34.31,11.5,49.1,18.09-36.45,55.67-61.52,99.13-61.52Z"/>
        <path class="cls-2" d="M2773.26,906.99c-43.45,0-81.03-25.07-99.13-61.52-7.35,14.8-11.5,31.46-11.5,49.1,0,61.09,49.53,110.62,110.62,110.62s110.62-49.53,110.62-110.62c0-17.64-4.15-34.31-11.5-49.1-18.09,36.45-55.67,61.52-99.13,61.52Z"/>
      </g>
      <rect class="cls-2" x="2662.17" y="788.17" width="11.36" height="114.59" rx="2.66" ry="2.66"/>
      <rect class="cls-2" x="2872.52" y="794.93" width="11.36" height="106.52" rx="2.66" ry="2.66"/>
    </g>
    <g>
      <circle class="cls-1" cx="2553.45" cy="1073.4" r="110.62"/>
      <g>
        <path class="cls-2" d="M2553.45,1005.13c43.45,0,81.03,25.07,99.13,61.52,7.35-14.8,11.5-31.46,11.5-49.1,0-61.09-49.53-110.62-110.62-110.62s-110.62,49.53-110.62,110.62c0,17.64,4.15,34.31,11.5,49.1,18.09-36.45,55.67-61.52,99.13-61.52Z"/>
        <path class="cls-2" d="M2553.45,1128.17c-43.45,0-81.03-25.07-99.13-61.52-7.35,14.8-11.5,31.46-11.5,49.1,0,61.09,49.53,110.62,110.62,110.62s110.62-49.53,110.62-110.62c0-17.64-4.15-34.31-11.5-49.1-18.09,36.45-55.67,61.52-99.13,61.52Z"/>
      </g>
      <rect class="cls-2" x="2442.35" y="1009.35" width="11.36" height="114.59" rx="2.66" ry="2.66"/>
      <rect class="cls-2" x="2652.7" y="1016.11" width="11.36" height="106.52" rx="2.66" ry="2.66"/>
    </g>
    <g>
      <circle class="cls-1" cx="2343.43" cy="852.22" r="110.62"/>
      <g>
        <path class="cls-2" d="M2343.43,783.95c43.45,0,81.03,25.07,99.13,61.52,7.35-14.8,11.5-31.46,11.5-49.1,0-61.09-49.53-110.62-110.62-110.62s-110.62,49.53-110.62,110.62c0,17.64,4.15,34.31,11.5,49.1,18.09-36.45,55.67-61.52,99.13-61.52Z"/>
        <path class="cls-2" d="M2343.43,906.99c-43.45,0-81.03-25.07-99.13-61.52-7.35,14.8-11.5,31.46-11.5,49.1,0,61.09,49.53,110.62,110.62,110.62s110.62-49.53,110.62-110.62c0-17.64-4.15-34.31-11.5-49.1-18.09,36.45-55.67,61.52-99.13,61.52Z"/>
      </g>
      <rect class="cls-2" x="2232.33" y="788.17" width="11.36" height="114.59" rx="2.66" ry="2.66"/>
      <rect class="cls-2" x="2442.68" y="794.93" width="11.36" height="106.52" rx="2.66" ry="2.66"/>
    </g>
    <g>
      <circle class="cls-1" cx="2757.23" cy="1408.43" r="110.62"/>
      <g>
        <path class="cls-2" d="M2757.23,1340.16c43.45,0,81.03,25.07,99.13,61.52,7.35-14.8,11.5-31.46,11.5-49.1,0-61.09-49.53-110.62-110.62-110.62s-110.62,49.53-110.62,110.62c0,17.64,4.15,34.31,11.5,49.1,18.09-36.45,55.67-61.52,99.13-61.52Z"/>
        <path class="cls-2" d="M2757.23,1463.19c-43.45,0-81.03-25.07-99.13-61.52-7.35,14.8-11.5,31.46-11.5,49.1,0,61.09,49.53,110.62,110.62,110.62s110.62-49.53,110.62-110.62c0-17.64-4.15-34.31-11.5-49.1-18.09,36.45-55.67,61.52-99.13,61.52Z"/>
      </g>
      <rect class="cls-2" x="2646.14" y="1344.38" width="11.36" height="114.59" rx="2.66" ry="2.66"/>
      <rect class="cls-2" x="2856.49" y="1351.13" width="11.36" height="106.52" rx="2.66" ry="2.66"/>
    </g>
    <g>
      <circle class="cls-1" cx="2537.42" cy="1629.61" r="110.62"/>
      <g>
        <path class="cls-2" d="M2537.42,1561.34c43.45,0,81.03,25.07,99.13,61.52,7.35-14.8,11.5-31.46,11.5-49.1,0-61.09-49.53-110.62-110.62-110.62s-110.62,49.53-110.62,110.62c0,17.64,4.15,34.31,11.5,49.1,18.09-36.45,55.67-61.52,99.13-61.52Z"/>
        <path class="cls-2" d="M2537.42,1684.37c-43.45,0-81.03-25.07-99.13-61.52-7.35,14.8-11.5,31.46-11.5,49.1,0,61.09,49.53,110.62,110.62,110.62s110.62-49.53,110.62-110.62c0-17.64-4.15-34.31-11.5-49.1-18.09,36.45-55.67,61.52-99.13,61.52Z"/>
      </g>
      <rect class="cls-2" x="2426.33" y="1565.56" width="11.36" height="114.59" rx="2.66" ry="2.66"/>
      <rect class="cls-2" x="2636.68" y="1572.31" width="11.36" height="106.52" rx="2.66" ry="2.66"/>
    </g>
    <g>
      <circle class="cls-1" cx="2327.4" cy="1408.43" r="110.62"/>
      <g>
        <path class="cls-2" d="M2327.4,1340.16c43.45,0,81.03,25.07,99.13,61.52,7.35-14.8,11.5-31.46,11.5-49.1,0-61.09-49.53-110.62-110.62-110.62s-110.62,49.53-110.62,110.62c0,17.64,4.15,34.31,11.5,49.1,18.09-36.45,55.67-61.52,99.13-61.52Z"/>
        <path class="cls-2" d="M2327.4,1463.19c-43.45,0-81.03-25.07-99.13-61.52-7.35,14.8-11.5,31.46-11.5,49.1,0,61.09,49.53,110.62,110.62,110.62s110.62-49.53,110.62-110.62c0-17.64-4.15-34.31-11.5-49.1-18.09,36.45-55.67,61.52-99.13,61.52Z"/>
      </g>
      <rect class="cls-2" x="2216.31" y="1344.38" width="11.36" height="114.59" rx="2.66" ry="2.66"/>
      <rect class="cls-2" x="2426.66" y="1351.13" width="11.36" height="106.52" rx="2.66" ry="2.66"/>
    </g>
  </g>
</svg>