<?xml version="1.0" encoding="UTF-8"?>
<svg id="Capa_2" data-name="Capa 2" xmlns="http://www.w3.org/2000/svg" viewBox="0 0 1549.75 1651.62">
  <defs>
    <style>
      .cls-1, .cls-2, .cls-3 {
        stroke-miterlimit: 10;
      }

      .cls-1, .cls-3 {
        stroke: #000;
      }

      .cls-2 {
        fill: #fff;
        stroke: #fff;
      }

      .cls-3 {
        fill: red;
      }
    </style>
  </defs>
  <path class="cls-1" d="M824.97,550.08c1.05,91.41,2.1,182.82,3.15,274.23,79.33-45.18,158.65-90.36,237.98-135.54-80.38-46.23-160.75-92.46-241.13-138.69Z"/>
  <path class="cls-3" d="M822.25,275.26c1.05,91.41,2.1,182.82,3.15,274.23,79.33-45.18,158.65-90.36,237.98-135.54-80.38-46.23-160.75-92.46-241.13-138.69Z"/>
  <path class="cls-1" d="M1063.38,138.15c1.05,91.41,2.1,182.82,3.15,274.23,79.33-45.18,158.65-90.36,237.98-135.54-80.38-46.23-160.75-92.46-241.13-138.69Z"/>
  <path class="cls-2" d="M1064.95,413.95c1.05,91.41,2.1,182.82,3.15,274.23,79.33-45.18,158.65-90.36,237.98-135.54-80.38-46.23-160.75-92.46-241.13-138.69Z"/>
  <path class="cls-1" d="M584.27,412.37c1.05,91.41,2.1,182.82,3.15,274.23,79.33-45.18,158.65-90.36,237.98-135.54-80.38-46.23-160.75-92.46-241.13-138.69Z"/>
  <path class="cls-1" d="M581.12,138.15c1.05,91.41,2.1,182.82,3.15,274.23,79.33-45.18,158.65-90.36,237.98-135.54-80.38-46.23-160.75-92.46-241.13-138.69Z"/>
  <path class="cls-1" d="M825.35,825.07c1.05,91.41,2.1,182.82,3.15,274.23,79.33-45.18,158.65-90.36,237.98-135.54-80.38-46.23-160.75-92.46-241.13-138.69Z"/>
  <path class="cls-1" d="M1307.61,552.42c1.05,91.41,2.1,182.82,3.15,274.23,79.33-45.18,158.65-90.36,237.98-135.54-80.38-46.23-160.75-92.46-241.13-138.69Z"/>
  <path class="cls-1" d="M822.2,.87c1.05,91.41,2.1,182.82,3.15,274.23,79.33-45.18,158.65-90.36,237.98-135.54C982.95,93.33,902.58,47.1,822.2,.87Z"/>
  <path class="cls-2" d="M584.22,962.11c1.05,91.41,2.1,182.82,3.15,274.23,79.33-45.18,158.65-90.36,237.98-135.54-80.38-46.23-160.75-92.46-241.13-138.69Z"/>
  <path class="cls-1" d="M824.68,1100.74c1.05,91.41,2.1,182.82,3.15,274.23,79.33-45.18,158.65-90.36,237.98-135.54-80.38-46.23-160.75-92.46-241.13-138.69Z"/>
  <path class="cls-1" d="M824.68,1376.54c1.05,91.41,2.1,182.82,3.15,274.23,79.33-45.18,158.65-90.36,237.98-135.54-80.38-46.23-160.75-92.46-241.13-138.69Z"/>
</svg>