<?xml version="1.0" encoding="utf-8"?>
<!-- Generator: Adobe Illustrator 28.0.0, SVG Export Plug-In . SVG Version: 6.00 Build 0)  -->
<svg version="1.1" id="Capa_1" xmlns="http://www.w3.org/2000/svg" xmlns:xlink="http://www.w3.org/1999/xlink" x="0px" y="0px"
	 viewBox="0 0 473.7 378.2" style="enable-background:new 0 0 473.7 378.2;" xml:space="preserve">
<g>
	<path d="M266,299.1c0-5.7,0-11,0-16.7c17.3,0,34.4,0,51.5,0c7.3,38.1-15.3,67.9-49.5,69.5c-12.6,0.6-25.3,0.1-38,0.1
		c-45.7,0-91.4-0.6-137,0.2c-26.7,0.5-54.9-20.1-54.7-54.5c0.2-39.2,0.1-78.3,0.1-117.5c0-30,0-60,0.1-90c0-17,6.6-31.1,19.9-41.8
		C67.7,40.7,78.6,37,90.6,37c58.2-0.1,116.3-0.2,174.5,0c30.8,0.1,53.4,23.3,53.3,54.2c0,5,0,10,0,15.5c-17.5,0-34.7,0-52.4,0
		c0-5.5,0-10.9,0-16.6c-58.5,0-116.4,0-174.7,0c0,69.5,0,139.1,0,209.2C149.2,299.1,207.3,299.1,266,299.1z"/>
	<path d="M145.7,212.1c-1.2,0-2.2-1-2.2-2.2c0-10.3,0.1-19.8-0.1-29.2c-0.1-3.8,2.1-3.8,4.8-3.8c21.2,0,42.3,0,63.5,0
		c39.1,0,78.3,0,117.4,0c1.5,0,2.9-0.2,4.7-0.3v-45.1c39.6,19.8,78.5,39.2,118.3,59c-39.5,24.4-78.3,48.4-117.9,72.9v-51.3H145.7z"
		/>
</g>
</svg>
